<?xml version="1.0" standalone="no"?>
<!DOCTYPE svg PUBLIC "-//W3C//DTD SVG 20010904//EN"
 "http://www.w3.org/TR/2001/REC-SVG-20010904/DTD/svg10.dtd">
<svg version="1.0" xmlns="http://www.w3.org/2000/svg"
 width="400.000000pt" height="400.000000pt" viewBox="0 0 400.000000 400.000000"
 preserveAspectRatio="xMidYMid meet">
<metadata>
Created by potrace 1.14, written by Peter Selinger 2001-2017
</metadata>
<g transform="translate(0.000000,400.000000) scale(0.100000,-0.100000)"
fill="#000000" stroke="none">
<path d="M0 2000 l0 -2000 586 0 586 0 -6 28 c-2 15 -8 66 -11 115 -7 84 -6
89 22 132 15 25 31 45 36 45 4 0 7 5 7 11 0 6 18 49 40 95 22 46 42 96 46 111
4 15 22 60 40 100 43 91 43 103 0 31 -71 -118 -240 -361 -244 -350 -2 6 4 24
12 41 9 16 23 51 32 77 9 26 24 59 33 73 10 14 31 46 47 71 16 25 51 76 77
113 l48 68 -31 50 c-24 40 -191 506 -230 644 -79 279 -88 314 -126 495 -19 91
-49 217 -68 280 -45 149 -61 273 -53 408 6 108 23 210 36 225 4 4 19 -2 34
-13 36 -29 158 -83 242 -108 140 -41 311 -48 411 -16 17 5 18 5 2 -6 -19 -12
-24 -30 -9 -30 15 0 110 124 131 172 11 23 33 63 50 88 16 25 30 50 30 56 0 6
9 23 21 38 15 19 30 26 57 26 33 1 35 2 17 12 -30 16 -31 18 -15 28 13 8 12
10 -2 10 -14 0 -18 8 -18 36 0 27 -4 35 -14 31 -8 -3 -17 -1 -20 6 -3 7 -3 2
0 -10 3 -13 1 -23 -5 -23 -6 0 -11 7 -11 15 0 8 -4 15 -8 15 -5 0 -19 19 -32
43 -13 23 -30 48 -37 55 -7 7 -13 18 -13 23 0 5 -7 9 -15 9 -22 0 -19 -10 19
-50 48 -51 86 -157 43 -122 -10 9 -13 2 -15 -33 -1 -35 1 -43 13 -39 9 4 15 0
15 -9 0 -28 -45 -141 -83 -209 -32 -57 -43 -69 -93 -92 -80 -38 -144 -49 -236
-41 -148 13 -326 78 -439 161 -51 37 -93 89 -63 77 33 -12 47 50 17 73 -10 8
-13 14 -6 14 7 0 15 16 19 35 3 19 10 35 15 35 5 0 9 8 9 18 0 19 32 114 41
122 3 3 12 30 19 60 7 30 16 60 20 65 4 6 10 29 13 53 3 24 8 47 12 50 15 15
172 5 248 -16 89 -25 90 -25 82 -12 -3 6 0 10 7 11 7 0 -2 7 -19 15 -18 8 -33
16 -33 17 0 2 23 5 52 6 28 1 54 4 57 8 3 3 -32 3 -79 -1 -100 -7 -239 11
-248 32 -5 13 5 73 25 149 13 51 62 105 92 101 14 -1 31 1 37 4 6 4 39 -2 75
-13 49 -15 74 -30 107 -65 24 -24 47 -42 52 -39 5 3 14 -3 19 -13 6 -11 23
-22 38 -25 16 -3 45 -22 66 -42 29 -28 38 -33 43 -21 3 8 13 12 22 10 15 -5
14 -3 -1 9 -12 10 -15 17 -7 22 8 5 7 12 -3 23 -24 29 -28 52 -9 52 28 0 -62
75 -106 88 -21 7 -47 21 -57 32 -10 11 -24 20 -31 20 -26 0 -65 24 -60 37 3 7
0 13 -7 13 -8 0 -8 3 2 9 22 14 -4 23 -68 24 -31 1 -46 3 -33 5 12 2 22 8 22
13 0 14 -33 11 -57 -6 -29 -21 -76 -38 -68 -25 3 6 2 10 -4 10 -6 0 -5 16 4
40 l14 40 -584 0 -585 0 0 -2000z m1500 1701 c0 -5 -13 -4 -30 2 -18 7 -25 14
-18 18 13 8 48 -7 48 -20z m-854 -388 c-10 -10 -19 5 -10 18 6 11 8 11 12 0 2
-7 1 -15 -2 -18z m61 -20 c-3 -10 -5 -4 -5 12 0 17 2 24 5 18 2 -7 2 -21 0
-30z m-47 -25 c0 -19 -2 -20 -10 -8 -13 19 -13 30 0 30 6 0 10 -10 10 -22z
m40 -38 c0 -5 -4 -10 -10 -10 -5 0 -10 5 -10 10 0 6 5 10 10 10 6 0 10 -4 10
-10z m14 -85 c4 -25 3 -34 -2 -25 -13 22 -24 87 -13 75 5 -6 11 -28 15 -50z
m51 -137 c16 -25 21 -37 11 -29 -16 14 -51 71 -43 71 3 0 17 -19 32 -42z"/>
<path d="M3191 3900 c-1 -64 1 -100 8 -100 6 0 15 -10 22 -22 9 -18 9 -20 -4
-15 -12 5 -14 -2 -10 -36 2 -23 8 -43 13 -45 5 -2 6 -10 4 -17 -3 -8 2 -51 11
-97 9 -46 15 -110 13 -143 l-3 -60 -48 3 c-42 3 -46 2 -40 -15 6 -17 6 -17
-14 0 -20 17 -38 23 -29 9 2 -4 -11 -6 -30 -4 -19 2 -37 8 -40 13 -3 5 -20 9
-37 9 -18 0 -43 7 -56 16 -13 10 -37 17 -52 16 -16 0 -27 3 -24 8 8 12 -21 20
-75 20 -27 0 -52 5 -55 10 -3 6 -35 10 -71 10 -41 0 -63 -4 -59 -10 3 -6 -4
-9 -18 -8 -27 2 -95 -29 -113 -51 -6 -8 -21 -15 -34 -16 -13 -1 -24 -9 -26
-18 -3 -25 -30 -48 -48 -41 -11 4 -16 0 -16 -14 0 -11 -8 -23 -18 -26 -10 -3
-38 -25 -62 -49 -50 -48 -73 -60 -87 -46 -6 6 -14 4 -23 -6 -11 -13 -10 -15 6
-10 18 6 18 5 1 -7 -28 -20 -74 -61 -58 -53 9 5 12 3 9 -6 -3 -8 -22 -17 -44
-20 l-39 -5 38 -8 c52 -11 46 -26 -8 -20 -53 5 -56 -4 -14 -35 28 -21 30 -27
29 -79 -2 -63 15 -175 30 -203 6 -10 10 -27 10 -38 0 -12 5 -21 11 -21 6 0 8
-7 5 -16 -4 -12 -2 -15 9 -11 8 4 17 1 21 -5 4 -7 3 -8 -4 -4 -19 11 -7 -56
12 -69 9 -7 16 -21 16 -32 0 -30 33 -56 50 -40 10 10 11 9 5 -1 -5 -9 -1 -12
11 -10 15 2 19 -3 19 -24 -1 -16 3 -28 7 -28 4 0 8 7 8 15 0 9 9 15 25 15 14
0 25 -5 25 -10 0 -11 51 -10 60 2 3 3 23 2 45 -2 22 -5 85 -18 140 -30 55 -11
134 -22 175 -25 l75 -4 -75 10 c-41 5 -120 21 -175 35 -55 14 -119 29 -143 34
-72 16 -155 62 -212 120 -47 46 -60 67 -78 125 -24 80 -42 180 -42 243 0 67
18 49 24 -25 10 -106 35 -220 58 -261 30 -52 60 -83 74 -78 7 3 15 -2 18 -10
9 -22 21 -16 22 11 1 14 -2 23 -6 20 -4 -2 -15 4 -24 14 -11 13 -14 21 -7 26
6 3 11 -1 11 -9 0 -9 5 -16 10 -16 13 0 13 16 0 41 -8 15 -6 24 10 41 11 12
20 28 20 35 0 8 5 11 10 8 6 -3 10 1 10 9 0 9 7 16 15 16 8 0 15 5 15 10 0 6
-4 10 -10 10 -5 0 -10 18 -10 41 0 34 3 39 18 35 13 -4 18 0 19 15 2 27 -19
34 -53 16 -27 -14 -28 -14 -46 19 -10 18 -15 40 -12 47 3 8 -2 17 -11 20 -13
6 -13 9 5 27 11 11 20 29 20 39 0 11 3 26 6 35 12 30 -14 16 -35 -19 -14 -24
-25 -33 -36 -29 -8 4 -15 11 -14 18 3 28 -2 38 -17 32 -14 -5 -15 -4 -4 9 7 8
17 12 23 8 5 -3 7 -1 3 5 -3 6 3 14 15 17 11 4 18 9 15 12 -8 9 -76 -37 -93
-63 -15 -24 -33 -32 -33 -16 0 5 16 25 36 46 52 53 149 94 242 101 143 12 154
13 165 28 12 15 48 24 120 31 29 3 40 -1 47 -15 8 -14 18 -17 48 -12 20 3 45
10 56 15 10 6 21 6 25 2 3 -5 15 -9 26 -10 44 -2 92 -12 113 -23 12 -7 28 -9
34 -5 6 4 8 3 5 -3 -8 -12 20 -26 34 -17 5 3 9 0 9 -5 0 -6 5 -11 11 -11 12 0
56 -52 51 -59 -2 -2 2 -8 10 -13 13 -9 6 -8 -54 8 -13 3 5 -14 39 -38 35 -25
60 -48 57 -51 -3 -3 3 -3 13 -1 11 3 24 -1 30 -8 9 -10 2 -13 -33 -14 -34 -1
-44 2 -40 13 3 8 -2 13 -15 13 -16 0 -19 -4 -14 -20 4 -13 1 -22 -9 -26 -13
-5 -13 -8 5 -23 18 -15 19 -18 4 -36 -15 -20 -15 -20 -33 1 -9 11 -23 19 -29
17 -6 -2 -14 1 -18 6 -3 6 -18 11 -32 11 -20 0 -24 -4 -20 -20 7 -28 -13 -37
-30 -14 -8 10 -24 20 -36 21 -84 7 -120 14 -177 33 -95 32 -145 40 -235 40
-100 -1 -118 -4 -123 -18 -4 -12 15 -16 51 -13 25 3 21 -13 -8 -35 -22 -17
-34 -44 -19 -44 15 0 50 36 46 48 -2 7 6 13 20 14 70 4 78 3 78 -12 1 -12 3
-12 14 3 10 13 15 15 19 5 3 -9 9 -8 21 7 15 19 15 19 16 -17 0 -35 2 -37 23
-29 19 8 23 6 23 -10 -1 -10 2 -17 6 -16 4 1 14 -7 21 -18 13 -16 17 -17 31
-6 14 11 16 11 16 -3 0 -9 7 -16 15 -16 8 0 15 -4 15 -9 0 -8 37 -24 52 -22 4
0 12 -8 18 -19 6 -11 17 -17 24 -14 9 3 22 -5 31 -20 10 -14 23 -26 30 -26 12
0 43 -14 74 -34 8 -5 27 -10 43 -11 16 -2 37 -10 46 -18 9 -8 34 -18 55 -22
20 -4 42 -15 47 -24 8 -14 9 -13 10 7 0 27 4 28 32 0 14 -14 18 -23 10 -26
-15 -5 -16 -22 0 -22 6 0 20 -8 30 -17 17 -15 20 -15 34 -1 22 22 2 58 -31 58
-14 0 -25 5 -25 10 0 6 7 10 15 10 11 0 14 7 10 23 -5 19 0 26 28 39 19 9 38
14 41 11 9 -9 7 -55 -1 -50 -5 3 -7 -12 -7 -33 2 -43 -25 -106 -44 -105 -8 0
-20 9 -28 19 -8 11 -14 15 -14 9 0 -7 5 -15 10 -18 6 -4 8 -10 5 -15 -3 -5 0
-12 6 -16 8 -5 9 -3 4 6 -6 9 -4 11 4 6 14 -9 6 -21 -12 -21 -7 0 -13 -10 -15
-23 -3 -16 -8 -22 -18 -18 -8 3 -12 1 -9 -4 12 -19 -88 -58 -168 -65 -42 -4
-80 -11 -83 -16 -15 -24 172 9 238 42 44 23 61 24 34 4 -11 -8 -15 -15 -9 -15
11 0 9 -43 -3 -62 -6 -9 -48 -29 -71 -34 -7 -1 -26 -9 -42 -17 -17 -8 -31 -12
-33 -8 -6 13 -88 -10 -88 -25 0 -8 5 -14 10 -14 6 0 16 -11 22 -25 6 -14 20
-25 30 -25 11 0 33 -13 51 -30 19 -18 26 -30 17 -30 -11 0 -11 -3 -2 -12 15
-15 16 -68 1 -68 -5 0 -7 -5 -4 -11 4 -6 -3 -21 -15 -34 -13 -14 -19 -29 -15
-36 5 -8 4 -10 -3 -5 -7 4 -12 1 -12 -7 0 -8 -23 -38 -51 -67 -28 -30 -48 -58
-45 -66 3 -9 -2 -14 -14 -14 -14 0 -20 -7 -20 -22 0 -17 -3 -19 -12 -10 -16
16 -28 15 -28 -2 0 -8 -10 -23 -23 -33 -47 -37 -69 -91 -31 -76 10 4 14 -3 14
-27 0 -18 -4 -29 -10 -25 -6 4 -10 -7 -10 -24 0 -34 -26 -71 -49 -71 -11 0
-12 -3 -4 -11 9 -9 5 -18 -13 -38 -13 -14 -24 -34 -24 -44 0 -10 -7 -20 -15
-23 -9 -4 -14 -11 -13 -18 4 -20 -13 -56 -27 -56 -7 0 -22 -10 -32 -23 -10
-13 -27 -27 -38 -31 -19 -8 -19 -8 4 -17 34 -13 12 -33 -35 -31 -36 1 -36 1
-31 -31 5 -34 -20 -85 -30 -59 -3 8 -13 -3 -25 -25 -11 -21 -47 -63 -79 -93
-38 -36 -59 -64 -59 -78 0 -13 -4 -21 -9 -17 -5 3 -25 -10 -44 -30 -19 -19
-38 -31 -42 -27 -5 4 -6 0 -2 -9 7 -20 -10 -39 -35 -39 -22 0 -24 -28 -3 -36
8 -4 12 -10 9 -15 -7 -11 17 -11 35 0 8 5 10 14 6 21 -5 9 -4 11 4 6 15 -10
40 11 52 41 6 17 16 23 39 23 29 0 41 15 18 22 -19 7 3 30 23 25 14 -4 19 0
19 14 0 11 8 23 17 26 9 4 26 17 38 30 11 13 36 26 55 29 l35 6 -29 -20 c-17
-12 -34 -18 -39 -15 -6 4 -7 -4 -4 -20 6 -21 4 -24 -11 -21 -10 3 -22 -4 -30
-16 -11 -17 -10 -21 4 -27 11 -4 22 1 30 12 8 10 14 15 14 11 0 -5 7 -3 15 4
9 7 19 10 23 6 4 -4 -2 -14 -12 -22 -11 -7 -17 -17 -13 -20 4 -4 28 11 54 32
27 21 53 42 58 47 6 4 20 16 33 27 13 10 30 16 37 14 7 -3 25 2 39 11 24 16
26 16 26 1 0 -19 14 -21 28 -3 14 16 102 20 120 5 7 -6 10 -19 7 -29 -4 -10
-1 -28 6 -40 9 -18 9 -21 -3 -17 -11 5 -13 -9 -13 -66 0 -39 4 -74 8 -77 5 -3
10 -18 11 -32 2 -14 12 -38 22 -53 10 -15 24 -36 31 -47 11 -19 13 -20 19 -4
3 9 14 17 24 17 10 0 20 7 24 15 3 8 12 15 20 15 7 0 16 9 19 20 3 11 12 20
20 20 8 0 17 10 21 22 4 18 8 20 18 10 14 -14 42 -16 33 -2 -4 6 6 10 24 10
41 0 43 -19 6 -58 -21 -23 -42 -34 -69 -38 -40 -5 -81 -22 -73 -30 7 -8 107
24 136 43 14 9 30 22 34 30 10 16 50 18 45 1 -3 -7 -15 -15 -29 -19 -13 -3
-23 -11 -22 -17 3 -13 -102 -111 -165 -153 -26 -18 -51 -37 -57 -43 -20 -24
-117 -96 -129 -96 -6 0 -42 -33 -80 -74 -41 -45 -74 -72 -82 -69 -8 3 -18 -5
-24 -18 -12 -30 -28 -54 -61 -99 -15 -19 -47 -65 -73 -102 l-46 -68 715 0 715
0 0 545 0 545 -30 6 c-16 4 -30 9 -30 13 0 4 -16 15 -35 25 -45 25 -116 18
-151 -15 -13 -12 -24 -28 -24 -35 0 -22 -28 -4 -50 31 l-21 33 34 74 c19 40
40 90 46 111 l13 38 115 -2 c72 -1 119 3 126 10 6 6 8 13 6 16 -3 3 -75 8
-160 11 -85 3 -158 6 -164 7 -5 0 -20 -3 -33 -7 l-23 -8 18 35 c10 19 41 60
69 90 l52 56 5 -28 c5 -26 39 -42 36 -17 -1 6 5 28 14 48 10 21 17 45 17 55 1
23 28 83 29 64 1 -10 5 -10 14 -3 14 12 67 4 67 -10 0 -5 5 -6 10 -3 6 3 10
-4 10 -17 1 -21 2 -22 14 -6 7 10 16 15 19 11 4 -3 7 519 7 1160 l0 1167 -403
0 -403 0 -3 -100z m34 -60 c3 -5 -1 -10 -9 -10 -9 0 -16 5 -16 10 0 6 4 10 9
10 6 0 13 -4 16 -10z m10 -109 c3 -5 1 -12 -5 -16 -5 -3 -10 1 -10 9 0 18 6
21 15 7z m-995 -816 c0 -14 -2 -25 -4 -25 -2 0 -11 -3 -20 -6 -9 -3 -16 -1
-16 6 0 6 5 8 12 4 8 -5 9 -2 5 10 -8 19 -1 36 14 36 5 0 9 -11 9 -25z m950
-15 c0 -5 -4 -10 -9 -10 -6 0 -13 5 -16 10 -3 6 1 10 9 10 9 0 16 -4 16 -10z
m-913 -42 c-3 -8 -6 -5 -6 6 -1 11 2 17 5 13 3 -3 4 -12 1 -19z m1213 -123 c0
-8 -7 -15 -16 -15 -14 0 -14 3 -4 15 7 8 14 15 16 15 2 0 4 -7 4 -15z m36 -32
c-10 -10 -19 5 -10 18 6 11 8 11 12 0 2 -7 1 -15 -2 -18z m-124 -24 c3 -9 9
-9 25 0 34 18 48 14 28 -9 -10 -11 -31 -20 -47 -20 -21 0 -28 5 -28 20 0 21
16 28 22 9z m-72 -56 c0 -5 -4 -14 -9 -21 -7 -11 -9 -11 -14 1 -3 8 -3 18 0
21 9 8 23 7 23 -1z m660 -849 c0 -11 -5 -14 -16 -10 -9 3 -20 6 -25 6 -6 0 -7
5 -4 10 10 16 45 12 45 -6z m-25 -44 c3 -5 -1 -10 -10 -10 -9 0 -13 5 -10 10
3 6 8 10 10 10 2 0 7 -4 10 -10z m-292 -15 c-3 -9 -8 -14 -10 -11 -3 3 -2 9 2
15 9 16 15 13 8 -4z m-26 -47 c-3 -8 -6 -5 -6 6 -1 11 2 17 5 13 3 -3 4 -12 1
-19z m-12 -37 c-3 -6 -11 -11 -17 -11 -6 0 -6 6 2 15 14 17 26 13 15 -4z m55
-282 c0 -5 -4 -9 -10 -9 -11 0 -53 -91 -45 -98 3 -3 5 -1 5 5 0 20 58 84 65
72 4 -6 2 -15 -5 -19 -7 -4 -10 -12 -6 -18 3 -6 -1 -17 -9 -25 -8 -9 -15 -18
-15 -21 0 -9 -34 -46 -42 -46 -5 0 -8 9 -8 21 0 11 -4 18 -9 15 -5 -3 -12 1
-15 10 -3 8 -2 13 3 10 5 -3 11 6 14 19 2 14 0 28 -5 31 -14 9 38 59 62 61 11
1 20 -2 20 -8z m-1050 -109 c0 -5 -4 -10 -10 -10 -5 0 -10 5 -10 10 0 6 5 10
10 10 6 0 10 -4 10 -10z m5 -240 c3 -5 -1 -10 -9 -10 -9 0 -16 5 -16 10 0 6 4
10 9 10 6 0 13 -4 16 -10z m680 -180 c-3 -5 -10 -10 -16 -10 -5 0 -9 5 -9 10
0 6 7 10 16 10 8 0 12 -4 9 -10z m172 -136 c-3 -3 -12 -4 -19 -1 -8 3 -5 6 6
6 11 1 17 -2 13 -5z m-713 -445 c-3 -5 -10 -7 -15 -3 -5 3 -7 10 -3 15 3 5 10
7 15 3 5 -3 7 -10 3 -15z"/>
<path d="M3135 3890 c3 -5 11 -10 16 -10 6 0 7 5 4 10 -3 6 -11 10 -16 10 -6
0 -7 -4 -4 -10z"/>
<path d="M1630 3560 c0 -5 12 -10 26 -10 14 0 23 4 19 10 -3 6 -15 10 -26 10
-10 0 -19 -4 -19 -10z"/>
<path d="M1170 3457 c0 -8 -11 -20 -25 -27 -14 -7 -25 -17 -25 -22 0 -4 -9 -8
-21 -8 -11 0 -18 -4 -15 -9 7 -10 -22 -24 -34 -16 -4 3 -13 -10 -20 -28 -7
-17 -17 -42 -22 -54 -16 -32 -3 -57 21 -43 33 17 55 11 73 -20 9 -17 25 -30
35 -31 16 0 16 -1 -2 -9 -15 -6 -8 -9 28 -9 26 -1 47 4 47 9 0 6 7 10 15 10 8
0 15 5 15 10 0 10 -21 14 -47 11 -7 -1 -13 2 -13 8 0 5 6 12 13 15 9 5 9 7 -1
12 -10 5 -10 9 -1 20 9 12 9 17 -4 27 -12 8 -14 16 -7 27 8 12 10 12 10 1 0
-8 9 -3 20 12 23 30 74 47 138 47 46 0 51 -9 27 -50 -17 -30 -19 -103 -4 -133
24 -46 62 -77 95 -77 18 0 36 -5 39 -10 4 -6 27 -9 52 -8 41 3 49 8 84 52 38
47 39 50 22 69 -50 57 -78 78 -133 103 -19 9 -43 23 -52 31 -9 8 -21 12 -26 9
-5 -3 -35 8 -67 26 -49 26 -68 31 -126 30 -61 0 -69 2 -69 19 0 10 -4 19 -10
19 -5 0 -10 -6 -10 -13z m330 -134 c0 -11 -7 -14 -27 -9 -21 5 -24 4 -13 -4 8
-5 24 -10 34 -10 29 0 11 -13 -24 -17 -30 -3 -37 8 -25 39 7 19 55 20 55 1z
m10 -86 c0 -7 -7 -22 -15 -33 -15 -19 -15 -19 -30 0 -23 31 -18 46 15 46 18 0
30 -5 30 -13z"/>
<path d="M1390 3450 c8 -5 20 -10 25 -10 6 0 3 5 -5 10 -8 5 -19 10 -25 10 -5
0 -3 -5 5 -10z"/>
<path d="M1340 3446 c0 -2 7 -7 16 -10 8 -3 12 -2 9 4 -6 10 -25 14 -25 6z"/>
<path d="M1625 3341 c-6 -11 13 -26 22 -17 4 3 1 6 -6 6 -7 0 -9 5 -6 10 3 6
4 10 1 10 -3 0 -7 -4 -11 -9z"/>
<path d="M2760 3210 c0 -5 5 -10 11 -10 5 0 7 5 4 10 -3 6 -8 10 -11 10 -2 0
-4 -4 -4 -10z"/>
<path d="M2795 3205 c6 -2 36 -11 68 -20 32 -9 55 -20 52 -24 -2 -5 5 -11 17
-14 12 -4 25 -1 29 5 5 8 19 6 48 -6 47 -18 70 -21 56 -7 -11 11 -241 71 -265
70 -8 0 -10 -2 -5 -4z"/>
<path d="M1650 3110 c0 -5 7 -10 16 -10 8 0 12 5 9 10 -3 6 -10 10 -16 10 -5
0 -9 -4 -9 -10z"/>
<path d="M2544 3092 c-4 -13 -14 -22 -23 -21 -28 2 -41 -1 -41 -10 0 -5 43 -9
98 -9 53 1 115 -2 137 -6 29 -5 36 -3 28 5 -6 6 -46 16 -89 22 -49 6 -84 17
-91 26 -11 14 -13 13 -19 -7z"/>
<path d="M1706 3043 c3 -10 -2 -27 -10 -38 -15 -19 -15 -19 -16 10 -1 25 -2
27 -11 13 -7 -12 -6 -24 1 -38 15 -28 26 -25 39 11 13 39 14 59 2 59 -5 0 -7
-8 -5 -17z"/>
<path d="M2235 2450 c3 -5 10 -10 16 -10 5 0 9 5 9 10 0 6 -7 10 -16 10 -8 0
-12 -4 -9 -10z"/>
<path d="M2175 2420 c-3 -5 -15 -10 -26 -10 -11 0 -22 -7 -24 -15 -17 -53 -15
-52 -31 -31 -11 16 -14 17 -14 4 0 -11 -6 -15 -19 -11 -16 4 -21 -2 -26 -30
-9 -49 1 -62 31 -42 23 15 24 15 24 -9 0 -15 8 -30 21 -36 16 -9 18 -14 8 -26
-6 -8 -22 -14 -36 -14 -27 0 -83 -38 -83 -57 0 -7 -9 -17 -21 -23 -11 -7 -29
-20 -40 -31 -10 -10 -29 -19 -40 -19 -12 0 -34 -11 -48 -25 -73 -69 -87 -79
-103 -77 -9 2 -19 -2 -23 -8 -3 -5 2 -10 12 -10 11 0 28 -6 38 -14 14 -10 29
-11 59 -4 52 12 162 -6 201 -33 29 -20 136 23 188 75 32 32 36 42 43 113 10
86 9 119 -2 208 -7 65 -45 153 -52 123 -2 -10 -10 -18 -17 -18 -9 0 -12 6 -9
15 7 17 -1 20 -11 5z m-55 -285 c0 -8 -4 -15 -10 -15 -5 0 -7 7 -4 15 4 8 8
15 10 15 2 0 4 -7 4 -15z"/>
<path d="M2855 2390 c-4 -6 18 -10 59 -10 36 0 68 5 71 10 4 6 -18 10 -59 10
-36 0 -68 -4 -71 -10z"/>
<path d="M2002 2268 c6 -18 28 -21 28 -4 0 9 -7 16 -16 16 -9 0 -14 -5 -12
-12z"/>
<path d="M2053 2242 c4 -5 -3 -12 -15 -15 -31 -9 -19 -16 15 -10 28 6 32 23 7
31 -7 3 -10 0 -7 -6z"/>
<path d="M1310 1672 c0 -1 4 -10 10 -20 5 -9 16 -59 24 -109 29 -189 139 -343
277 -391 94 -32 114 -36 204 -35 54 0 93 6 120 18 22 10 50 20 62 22 13 2 49
28 80 58 32 31 78 72 103 92 26 20 66 66 90 102 25 35 59 80 77 99 28 29 31
37 21 51 -25 32 -44 39 -94 39 -28 0 -66 4 -85 10 -100 32 -372 51 -407 29 -7
-5 -40 1 -77 13 -56 18 -91 22 -235 23 -94 1 -170 1 -170 -1z m234 -61 c9 -14
176 -66 216 -66 92 -2 120 -6 133 -20 13 -12 18 -11 43 10 35 30 79 33 94 6 5
-11 10 -40 10 -65 0 -41 -3 -48 -32 -66 -52 -32 -108 -25 -108 14 -1 20 -1 20
-14 -3 -22 -40 -68 -50 -138 -30 -29 7 -38 15 -38 32 l0 21 -15 -22 c-15 -21
-17 -21 -58 -5 -52 20 -74 38 -81 67 -5 19 -11 22 -35 18 -25 -3 -33 1 -50 29
-21 34 -27 70 -14 82 10 10 81 8 87 -2z m596 -72 c0 -29 -46 -83 -62 -73 -14
9 -9 47 9 66 17 20 53 25 53 7z m-707 -84 c-3 -9 -8 -14 -10 -11 -3 3 -2 9 2
15 9 16 15 13 8 -4z m40 -40 c-3 -9 -8 -14 -10 -11 -3 3 -2 9 2 15 9 16 15 13
8 -4z m28 -39 c5 3 9 1 9 -5 0 -5 -4 -13 -10 -16 -5 -3 -10 -4 -10 -1 0 2 -2
10 -3 18 -2 7 -2 10 0 5 3 -4 9 -5 14 -1z m100 -61 c40 -7 43 -12 39 -65 -3
-38 -14 -43 -44 -19 -21 17 -25 24 -14 30 9 6 9 9 1 9 -6 0 -15 9 -18 20 -3
11 -13 20 -21 20 -17 0 -18 22 -1 39 10 10 13 8 15 -8 2 -14 14 -21 43 -26z
m73 -36 c-4 -8 0 -9 15 -4 17 5 21 2 21 -14 0 -38 -17 -68 -39 -66 -29 2 -33
9 -22 36 5 13 12 32 15 42 3 9 8 17 11 17 4 0 3 -5 -1 -11z m100 -10 c4 6 13
8 21 5 8 -4 13 -10 10 -14 -3 -5 -1 -10 4 -12 4 -1 12 -14 16 -28 7 -21 6 -23
-7 -12 -12 10 -18 8 -33 -8 -19 -20 -41 -28 -30 -10 8 13 -1 13 -27 -1 -20
-11 -21 -10 -14 32 9 56 25 77 42 54 7 -10 15 -12 18 -6z m86 -23 c0 -3 -4 -8
-10 -11 -5 -3 -10 -1 -10 4 0 6 5 11 10 11 6 0 10 -2 10 -4z"/>
<path d="M3735 1440 c-3 -5 -1 -10 4 -10 6 0 11 5 11 10 0 6 -2 10 -4 10 -3 0
-8 -4 -11 -10z"/>
<path d="M2480 901 c0 -12 29 -23 41 -15 18 10 9 24 -16 24 -14 0 -25 -4 -25
-9z"/>
<path d="M2477 869 c7 -7 15 -10 18 -7 3 3 -2 9 -12 12 -14 6 -15 5 -6 -5z"/>
<path d="M2225 810 c-3 -5 1 -13 10 -16 22 -9 29 1 11 15 -10 8 -16 9 -21 1z"/>
<path d="M2250 770 c0 -5 10 -10 23 -10 18 0 19 2 7 10 -19 13 -30 13 -30 0z"/>
</g>
</svg>
